<svg width="85" height="108" viewBox="0 0 85 108" fill="none" xmlns="http://www.w3.org/2000/svg">
<g filter="url(#filter0_d_306_1930)">
<path d="M76.872 87.3948C76.583 91.3553 73.7408 94.0663 67.3338 95.3083C53.9529 97.9003 12.6799 95.829 12.6799 95.829C9.43376 95.4236 7.08441 93.1217 4.72764 90.5223C0.673713 86.0635 -0.282333 79.9648 0.0659936 76.4728C0.670007 70.4187 2.70068 64.3199 7.15852 57.1018C11.6164 49.8875 18.783 42.1934 18.783 42.1934C18.783 42.1934 41.8133 41.0071 51.5813 40.4307C51.5813 40.4307 58.9703 46.0609 64.7102 52.9592C69.987 59.3033 74.2225 67.1945 76.0605 73.8474C77.0425 77.4025 77.1388 83.7281 76.872 87.3948Z" fill="#D9B373"/>
<path d="M43.0436 50.8581C45.493 50.6164 50.2288 49.5119 55.8576 47.7381C61.4864 45.9642 61.4864 43.971 61.7013 39.5605C61.9607 34.2464 60.5748 28.9881 58.8888 24.2244C57.1953 19.4495 54.0604 13.0867 54.0604 13.0867C54.0604 13.0867 58.9666 11.6327 58.8851 8.4048C58.8036 5.17692 55.7501 2.35066 53.1747 0.89663C50.5994 -0.557403 45.2929 -0.393778 42.7991 2.51057C40.3052 5.41492 42.5582 9.28242 42.7991 9.52786H31.9009C32.1417 9.28614 34.3947 5.41864 31.9009 2.51057C29.407 -0.393778 24.1006 -0.557403 21.5252 0.89663C18.9498 2.35066 15.8964 5.1732 15.8149 8.4048C15.7333 11.6327 20.6395 13.0867 20.6395 13.0867C20.6395 13.0867 17.5046 19.4495 15.8111 24.2244C14.1214 28.9881 12.7392 34.2464 12.9986 39.5605C13.2135 43.9747 13.2135 45.9642 18.8423 47.7381C24.4711 49.5156 29.2106 50.6164 31.6563 50.8581C34.4874 51.1407 40.2051 51.1407 43.0362 50.8581H43.0436Z" fill="#D9B373"/>
<path d="M32.5641 34.0903C32.4085 34.0978 32.3195 34.3878 32.2343 34.5626C31.8749 35.4663 31.1486 37.5488 30.8225 39.304C30.5038 40.6651 30.5075 43.8595 32.6419 43.0377C34.3391 41.8588 33.3089 39.1739 33.1607 37.1695C33.0273 36.4406 32.8383 34.2949 32.5789 34.0978H32.5678L32.5641 34.0903Z" fill="#FFF6DE"/>
<path d="M18.5421 47.8386C17.5193 50.0289 28.7955 60.8914 31.0448 63.409C33.6017 66.2724 36.2586 71.1403 37.7149 72.1444C39.0452 73.0629 45.4929 63.2826 47.0271 61.5087C48.5612 59.7349 56.2096 48.6939 55.2498 47.8349C54.6828 47.3291 42.1579 50.7504 37.7297 50.6834C33.3015 50.6165 18.7793 47.3291 18.5421 47.8349V47.8386Z" fill="#FFF6DE"/>
<path d="M27.3873 31.9073C32.2704 31.9073 36.2289 27.9347 36.2289 23.0343C36.2289 18.1339 32.2704 14.1614 27.3873 14.1614C22.5043 14.1614 18.5458 18.1339 18.5458 23.0343C18.5458 27.9347 22.5043 31.9073 27.3873 31.9073Z" fill="#FFF6DE"/>
<path d="M27.3874 32.6548C22.1032 32.6548 17.8047 28.341 17.8047 23.0381C17.8047 17.7351 22.1032 13.4214 27.3874 13.4214C32.6716 13.4214 36.9701 17.7351 36.9701 23.0381C36.9701 28.341 32.6716 32.6548 27.3874 32.6548ZM27.3874 14.9052C22.9184 14.9052 19.2869 18.5533 19.2869 23.0344C19.2869 27.5155 22.9221 31.1636 27.3874 31.1636C31.8526 31.1636 35.4878 27.5155 35.4878 23.0344C35.4878 18.5533 31.8526 14.9052 27.3874 14.9052Z" fill="#603813"/>
<path d="M47.3643 31.9073C52.2473 31.9073 56.2058 27.9347 56.2058 23.0343C56.2058 18.1339 52.2473 14.1614 47.3643 14.1614C42.4812 14.1614 38.5227 18.1339 38.5227 23.0343C38.5227 27.9347 42.4812 31.9073 47.3643 31.9073Z" fill="#FFF6DE"/>
<path d="M47.3643 32.6548C42.0801 32.6548 37.7816 28.341 37.7816 23.0381C37.7816 17.7351 42.0801 13.4214 47.3643 13.4214C52.6485 13.4214 56.947 17.7351 56.947 23.0381C56.947 28.341 52.6485 32.6548 47.3643 32.6548ZM47.3643 14.9052C42.8953 14.9052 39.2639 18.5533 39.2639 23.0344C39.2639 27.5155 42.8991 31.1636 47.3643 31.1636C51.8296 31.1636 55.4648 27.5155 55.4648 23.0344C55.4648 18.5533 51.8296 14.9052 47.3643 14.9052Z" fill="#603813"/>
<path d="M36.2067 24.4177C36.0695 24.4177 35.9287 24.3805 35.8027 24.2987C35.4581 24.0756 35.3618 23.6145 35.5841 23.2686C36.0066 22.6179 36.7328 22.3389 37.2739 22.298C37.9335 22.246 38.5301 22.5174 39.0489 23.0939C39.3231 23.3988 39.3008 23.8674 38.997 24.1425C38.6931 24.4177 38.2262 24.3954 37.9483 24.0905C37.6518 23.7595 37.4777 23.7744 37.385 23.7818C37.2368 23.793 36.9552 23.8822 36.8255 24.0793C36.6847 24.2987 36.4475 24.4177 36.2029 24.4177H36.2067Z" fill="#603813"/>
<path d="M31.4192 17.8131C30.4742 17.0768 28.9179 17.5603 28.1916 18.5383C27.5097 19.4531 26.9576 21.0299 27.8358 21.967C28.7696 22.7516 30.6892 22.4802 31.6156 21.5616C32.5123 20.5948 32.4086 18.728 31.4636 17.854L31.4154 17.8131H31.4192Z" fill="#603813"/>
<path d="M47.4719 17.0695C48.4168 16.3332 49.9731 16.8166 50.6994 17.7946C51.3813 18.7095 51.9334 20.2862 51.0552 21.2233C50.1214 22.008 48.2019 21.7365 47.2755 20.818C46.3787 19.8511 46.4825 17.9843 47.4274 17.1104L47.4756 17.0695H47.4719Z" fill="#603813"/>
<path d="M39.0378 27.088C39.1453 26.2959 38.3338 25.6005 37.4741 25.5373C36.644 25.4778 35.725 26.0022 35.662 26.7905C35.599 27.5752 36.4105 28.2037 37.2258 28.2669C38.0336 28.3301 38.9341 27.8429 39.0378 27.0843V27.088Z" fill="#603813"/>
<path d="M37.3629 28.6424C37.3073 28.6424 37.2554 28.6424 37.1999 28.635C36.6107 28.5903 36.04 28.3077 35.6769 27.8801C35.3952 27.5454 35.2618 27.1586 35.2952 26.7607C35.3804 25.7157 36.4995 25.0947 37.5037 25.1654C38.1114 25.21 38.6895 25.5075 39.0564 25.9612C39.338 26.3107 39.464 26.731 39.4084 27.1363C39.2787 28.0697 38.2819 28.6424 37.3629 28.6424ZM37.3444 25.9054C36.7404 25.9054 36.0771 26.2773 36.0326 26.8239C36.0104 27.0731 36.1326 27.2776 36.2401 27.4003C36.4736 27.6755 36.8664 27.8689 37.2554 27.8986C37.8595 27.9433 38.5969 27.5863 38.671 27.0396C38.7043 26.783 38.5858 26.5673 38.4783 26.4335C38.2411 26.1397 37.8446 25.9389 37.4481 25.9128C37.4148 25.9128 37.3777 25.9091 37.3444 25.9091V25.9054Z" fill="#603813"/>
<path d="M32.1232 36.028C32.0305 36.028 31.9416 36.0094 31.849 35.9759C31.4673 35.8234 31.282 35.3921 31.4339 35.009C32.4419 32.458 36.0993 30.4759 37.5482 30.4573H37.5667C39.0045 30.4573 41.9356 32.7294 43.0843 34.4401C43.3141 34.7822 43.2252 35.2433 42.8842 35.4739C42.5433 35.7044 42.0838 35.6152 41.8541 35.2731C40.8202 33.7335 38.2708 31.9448 37.5704 31.9448C37.5704 31.9448 37.5704 31.9448 37.5667 31.9448C36.7811 31.9559 33.6202 33.5104 32.8124 35.5594C32.6975 35.8532 32.4196 36.028 32.1232 36.028Z" fill="#603813"/>
<path d="M48.6317 56.6072C49.547 65.5806 51.9408 75.0969 57.2842 82.5269C66.9299 95.8959 76.6423 88.2166 75.3231 74.104C75.1119 71.367 74.6265 68.6299 74.0299 65.945C72.3401 58.4666 70.139 51.5162 64.6843 46.0794C61.9422 43.2718 57.6733 40.4715 53.7232 41.9218C48.5057 44.2386 48.2463 51.3266 48.628 56.5291L48.6354 56.6072H48.6317Z" fill="#D9B373"/>
<path d="M55.8354 80.225C55.5871 80.225 55.3462 80.0986 55.2054 79.8717C50.3474 72.0103 47.9202 59.4595 48.0314 51.1295C48.0795 47.4293 49.421 43.0189 52.3002 41.5091C55.2388 39.9695 58.0921 40.3525 60.5489 42.6135C60.849 42.8924 60.8713 43.361 60.5934 43.6659C60.3154 43.9672 59.8485 43.9895 59.5447 43.7106C57.5325 41.8586 55.387 41.5686 52.982 42.8292C50.7587 43.9932 49.5544 47.8942 49.5099 51.1481C49.4024 59.2624 51.7555 71.4674 56.4616 79.0871C56.6765 79.4366 56.5691 79.8941 56.2207 80.1097C56.0985 80.1841 55.9651 80.2213 55.8317 80.2213L55.8354 80.225Z" fill="#603813"/>
<path d="M52.2335 44.0378C54.6199 46.7637 55.072 49.073 55.072 49.073Z" fill="#603813"/>
<path d="M55.0721 49.8168C54.7237 49.8168 54.4162 49.5713 54.3458 49.2143C54.3458 49.1958 53.8826 47.0463 51.6777 44.5287C51.4072 44.2201 51.4369 43.7515 51.7444 43.48C52.052 43.2086 52.5189 43.2383 52.7894 43.547C55.2796 46.3881 55.7798 48.8276 55.7984 48.9317C55.8762 49.3333 55.6168 49.7238 55.2129 49.8056C55.1647 49.8168 55.1165 49.8205 55.0684 49.8205L55.0721 49.8168Z" fill="#603813"/>
<path d="M56.6727 42.4351C58.0253 43.7329 59.0332 47.712 59.0332 47.712Z" fill="#603813"/>
<path d="M59.0332 48.4558C58.7034 48.4558 58.3996 48.2327 58.3143 47.8943C58.0475 46.8456 57.1397 43.9115 56.1577 42.9707C55.8612 42.688 55.8501 42.2158 56.1355 41.9183C56.4171 41.6208 56.8877 41.6096 57.1841 41.896C58.6479 43.3016 59.6447 47.0985 59.7521 47.5299C59.8522 47.9278 59.6113 48.3331 59.2148 48.4335C59.1518 48.4484 59.0925 48.4558 59.0332 48.4558Z" fill="#603813"/>
<path d="M59.1963 88.719C59.0629 90.7085 59.1963 91.3779 57.4917 93.6575C55.7871 95.9371 54.1789 97.8337 49.9211 99.165C45.3744 100.586 27.5912 99.9236 20.7803 99.165C17.2563 98.7708 14.0435 97.882 11.1309 96.3759C6.42477 92.6497 2.91186 86.8076 6.62117 81.2257C6.99173 80.8538 8.11082 80.032 8.48138 79.6601C10.0896 78.7118 10.3157 78.1875 12.2648 77.7598C12.2648 77.3879 12.9207 77.5069 12.9207 77.5069C12.9207 77.5069 35.7546 76.6777 41.5205 77.7152C56.1762 80.3555 56.0465 81.3707 58.5626 85.4948C58.9888 86.1977 59.2482 87.9009 59.1926 88.7227L59.1963 88.719Z" fill="#D9B373"/>
<path d="M56.7358 88.0197C54.8348 86.9599 51.0958 86.7554 51.0958 86.7554L56.7358 88.0197Z" fill="#603813"/>
<path d="M56.7358 88.7635C56.6839 88.7635 56.6283 88.7561 56.5727 88.745L50.9328 87.4806C50.5548 87.395 50.3066 87.0343 50.3621 86.6513C50.414 86.2683 50.7512 85.9856 51.1366 86.0117C51.2959 86.0191 55.0683 86.2422 57.0952 87.369C57.4176 87.5475 57.5584 87.938 57.4287 88.2838C57.3175 88.5776 57.0396 88.7635 56.7358 88.7635Z" fill="#603813"/>
<path d="M56.1762 91.6938H51.0958C51.0958 91.6938 53.9158 91.9765 56.1762 91.6938Z" fill="#603813"/>
<path d="M53.8454 92.5641C52.3446 92.5641 51.0995 92.4414 51.0217 92.434C50.6289 92.3931 50.3362 92.0509 50.3547 91.6568C50.3732 91.2626 50.6993 90.9502 51.0958 90.9502H56.1762C56.569 90.9502 56.8914 91.2551 56.9173 91.6493C56.9433 92.0435 56.6579 92.3856 56.2689 92.434C55.4759 92.5344 54.6273 92.5679 53.8454 92.5679V92.5641Z" fill="#603813"/>
<path d="M58.2477 86.2347C57.992 86.2347 57.7437 86.1008 57.6066 85.8665C56.4282 83.8398 55.1869 82.5717 51.3256 80.8536C46.3082 78.6224 33.9315 76.6068 15.5517 78.2542C15.1441 78.2914 14.7847 77.9902 14.7476 77.5811C14.7105 77.1721 15.0107 76.8114 15.4183 76.7742C34.0797 75.1007 46.7455 77.1907 51.9259 79.4926C55.6982 81.1697 57.388 82.5345 58.8887 85.1153C59.0963 85.4686 58.974 85.926 58.6219 86.1343C58.5034 86.2049 58.3774 86.2347 58.2477 86.2347Z" fill="#603813"/>
<path d="M29.5885 9.13727C29.5885 9.13727 30.3111 6.47464 27.5764 6.15111C24.8417 5.82758 22.5887 7.03989 22.3478 7.64605C22.1069 8.25221 21.5622 9.58352 22.3478 10.4314C23.4261 11.5991 24.0375 11.1566 24.0375 11.1566L29.5885 9.13727Z" fill="#603813"/>
<path d="M45.971 9.13727C45.971 9.13727 45.2484 6.47464 47.9832 6.15111C50.7179 5.82758 52.9709 7.03989 53.2118 7.64605C53.4526 8.25221 53.9974 9.58352 53.2118 10.4314C52.1334 11.5991 51.522 11.1566 51.522 11.1566L45.971 9.13727Z" fill="#603813"/>
</g>
<defs>
<filter id="filter0_d_306_1930" x="0" y="0" width="85" height="108" filterUnits="userSpaceOnUse" color-interpolation-filters="sRGB">
<feFlood flood-opacity="0" result="BackgroundImageFix"/>
<feColorMatrix in="SourceAlpha" type="matrix" values="0 0 0 0 0 0 0 0 0 0 0 0 0 0 0 0 0 0 127 0" result="hardAlpha"/>
<feMorphology radius="4" operator="dilate" in="SourceAlpha" result="effect1_dropShadow_306_1930"/>
<feOffset dx="4" dy="4"/>
<feComposite in2="hardAlpha" operator="out"/>
<feColorMatrix type="matrix" values="0 0 0 0 0.865234 0 0 0 0 0.839319 0 0 0 0 0.803346 0 0 0 1 0"/>
<feBlend mode="normal" in2="BackgroundImageFix" result="effect1_dropShadow_306_1930"/>
<feBlend mode="normal" in="SourceGraphic" in2="effect1_dropShadow_306_1930" result="shape"/>
</filter>
</defs>
</svg>
