<svg width="88" height="108" viewBox="0 0 88 108" fill="none" xmlns="http://www.w3.org/2000/svg">
<g filter="url(#filter0_d_306_1974)">
<path d="M77.4242 87.3948C77.1331 91.3553 74.2704 94.0663 67.8174 95.3083C54.3404 97.9003 12.7709 95.829 12.7709 95.829C9.50152 95.4236 7.13529 93.1217 4.7616 90.5223C0.678552 86.0635 -0.284361 79.9648 0.0664676 76.4728C0.674819 70.4187 2.72007 64.3199 7.20993 57.1018C11.6998 49.8875 18.9179 42.1934 18.9179 42.1934C18.9179 42.1934 42.1136 41.0071 51.9518 40.4307C51.9518 40.4307 59.3938 46.0609 65.175 52.9592C70.4897 59.3033 74.7556 67.1945 76.6068 73.8474C77.5958 77.4025 77.6929 83.7281 77.4242 87.3948Z" fill="#D9B373"/>
<path d="M43.3527 50.8581C45.8197 50.6164 50.5894 49.5119 56.2587 47.7381C61.9279 45.9605 61.9279 43.971 62.1444 39.5605C62.4056 34.2464 61.0098 28.9881 59.3116 24.2244C57.606 19.4495 54.4486 13.0867 54.4486 13.0867C54.4486 13.0867 59.39 11.6327 59.3079 8.4048C59.2258 5.17692 56.1504 2.35066 53.5566 0.89663C50.9627 -0.557404 45.6181 -0.393778 43.1063 2.51057C40.5946 5.41492 42.8637 9.28242 43.1063 9.52786H32.1299C32.3725 9.28614 34.6417 5.41864 32.1299 2.51057C29.6181 -0.393778 24.2736 -0.557404 21.6797 0.89663C19.0858 2.35066 16.0104 5.1732 15.9283 8.4048C15.8462 11.6364 20.7877 13.0867 20.7877 13.0867C20.7877 13.0867 17.6302 19.4495 15.9246 24.2244C14.2227 28.9881 12.8306 34.2464 13.0918 39.5605C13.3083 43.9747 13.3083 45.9642 18.9775 47.7381C24.6468 49.5156 29.4203 50.6164 31.8836 50.8581C34.735 51.1407 40.4938 51.1407 43.3452 50.8581H43.3527Z" fill="#D9B373"/>
<path d="M32.7982 34.0903C32.6414 34.1015 32.5518 34.4139 32.466 34.611C32.104 35.6001 31.3725 37.8835 31.044 39.8061C30.7231 41.2973 30.7268 44.7966 32.8765 43.893C34.5859 42.6026 33.5483 39.661 33.3991 37.4632C33.2647 36.6637 33.0743 34.3135 32.8131 34.0978H32.8019L32.7982 34.0903Z" fill="#FFF6DE"/>
<path d="M18.6754 47.8386C17.6453 50.0289 29.0024 60.8914 31.2679 63.409C33.8431 66.2724 36.5191 71.1403 37.9859 72.1444C39.3257 73.0629 45.8198 63.2826 47.3649 61.5087C48.9101 59.7349 56.6134 48.6939 55.6467 47.8349C55.0757 47.3291 42.4608 50.7504 38.0008 50.6834C33.5408 50.6165 18.9142 47.3291 18.6754 47.8349V47.8386Z" fill="#FFF6DE"/>
<path d="M27.5842 31.9073C32.5023 31.9073 36.4892 27.9347 36.4892 23.0343C36.4892 18.1339 32.5023 14.1614 27.5842 14.1614C22.666 14.1614 18.6791 18.1339 18.6791 23.0343C18.6791 27.9347 22.666 31.9073 27.5842 31.9073Z" fill="#FFF6DE"/>
<path d="M27.5841 32.6548C22.262 32.6548 17.9326 28.341 17.9326 23.0381C17.9326 17.7351 22.262 13.4214 27.5841 13.4214C32.9063 13.4214 37.2357 17.7351 37.2357 23.0381C37.2357 28.341 32.9063 32.6548 27.5841 32.6548ZM27.5841 14.9052C23.0831 14.9052 19.4255 18.5533 19.4255 23.0344C19.4255 27.5155 23.0868 31.1636 27.5841 31.1636C32.0815 31.1636 35.7428 27.5155 35.7428 23.0344C35.7428 18.5533 32.0815 14.9052 27.5841 14.9052Z" fill="#603813"/>
<path d="M47.7045 31.9073C52.6227 31.9073 56.6096 27.9347 56.6096 23.0343C56.6096 18.1339 52.6227 14.1614 47.7045 14.1614C42.7864 14.1614 38.7994 18.1339 38.7994 23.0343C38.7994 27.9347 42.7864 31.9073 47.7045 31.9073Z" fill="#FFF6DE"/>
<path d="M47.7045 32.6548C42.3824 32.6548 38.053 28.341 38.053 23.0381C38.053 17.7351 42.3824 13.4214 47.7045 13.4214C53.0266 13.4214 57.356 17.7351 57.356 23.0381C57.356 28.341 53.0266 32.6548 47.7045 32.6548ZM47.7045 14.9052C43.2034 14.9052 39.5459 18.5533 39.5459 23.0344C39.5459 27.5155 43.2072 31.1636 47.7045 31.1636C52.2018 31.1636 55.8631 27.5155 55.8631 23.0344C55.8631 18.5533 52.2018 14.9052 47.7045 14.9052Z" fill="#603813"/>
<path d="M36.4669 24.4177C36.3288 24.4177 36.187 24.3805 36.0601 24.2987C35.713 24.0756 35.6159 23.6145 35.8399 23.2686C36.2653 22.6179 36.9968 22.3389 37.5417 22.298C38.2061 22.246 38.807 22.5174 39.3295 23.0939C39.6057 23.3988 39.5833 23.8674 39.2772 24.1425C38.9712 24.4177 38.5009 24.3954 38.221 24.0905C37.9224 23.7595 37.747 23.7744 37.6537 23.7818C37.5044 23.793 37.2208 23.8822 37.0901 24.0793C36.9483 24.2987 36.7095 24.4177 36.4631 24.4177H36.4669Z" fill="#603813"/>
<path d="M31.4768 18.2707C30.331 17.9621 28.4463 18.1666 27.5655 18.572C26.7369 18.9513 26.0726 19.6095 27.1363 20C28.2671 20.3272 30.596 20.2119 31.7194 19.8326C32.8055 19.431 32.6823 18.6538 31.5365 18.2893L31.4768 18.2745V18.2707Z" fill="#603813"/>
<path d="M43.9574 17.8059C45.0546 17.4972 46.8536 17.7018 47.6933 18.1071C48.4845 18.4864 49.1228 19.1447 48.1039 19.5351C47.0252 19.8624 44.7971 19.7471 43.726 19.3678C42.6884 18.9662 42.8041 18.1889 43.9014 17.8245L43.9574 17.8096V17.8059Z" fill="#603813"/>
<path d="M29.4091 9.53522C29.4091 9.53522 30.1369 6.87259 27.3825 6.54906C24.6281 6.22553 22.3589 7.43784 22.1164 8.044C21.8738 8.65016 21.3251 9.98147 22.1164 10.8293C23.2024 11.997 23.8182 11.5545 23.8182 11.5545L29.4091 9.53522Z" fill="#603813"/>
<path d="M45.9093 9.53522C45.9093 9.53522 45.1815 6.87259 47.9359 6.54906C50.6902 6.22553 52.9594 7.43784 53.202 8.044C53.4446 8.65016 53.9933 9.98147 53.202 10.8293C52.1159 11.997 51.5001 11.5545 51.5001 11.5545L45.9093 9.53522Z" fill="#603813"/>
<path d="M39.3182 27.088C39.4264 26.2959 38.6091 25.6005 37.7432 25.5373C36.9072 25.4778 35.9816 26.0022 35.9181 26.7905C35.8547 27.5752 36.6721 28.2037 37.4931 28.2669C38.3068 28.3301 39.2137 27.8429 39.3182 27.0843V27.088Z" fill="#603813"/>
<path d="M37.6312 28.6424C37.5752 28.6424 37.523 28.6424 37.467 28.635C36.8736 28.5903 36.2988 28.3077 35.9331 27.8801C35.6494 27.5454 35.515 27.1586 35.5486 26.7607C35.6345 25.7157 36.7616 25.0947 37.773 25.1654C38.3851 25.21 38.9673 25.5075 39.3368 25.9612C39.6205 26.3107 39.7474 26.731 39.6914 27.1363C39.5608 28.0697 38.5568 28.6424 37.6312 28.6424ZM37.6126 25.9054C37.0042 25.9054 36.3361 26.2773 36.2913 26.8239C36.269 27.0731 36.3921 27.2776 36.5004 27.4003C36.7355 27.6755 37.1311 27.8689 37.523 27.8986C38.1313 27.9433 38.874 27.5863 38.9487 27.0396C38.9823 26.783 38.8628 26.5673 38.7546 26.4335C38.5157 26.1397 38.1164 25.9389 37.7171 25.9128C37.6835 25.9128 37.6461 25.9091 37.6126 25.9091V25.9054Z" fill="#603813"/>
<path d="M32.3538 36.028C32.2605 36.028 32.171 36.0094 32.0777 35.9759C31.6932 35.8234 31.5066 35.3921 31.6597 35.009C32.6748 32.458 36.3585 30.4759 37.8178 30.4573H37.8365C39.2846 30.4573 42.2368 32.7294 43.3938 34.4401C43.6251 34.7822 43.5356 35.2433 43.1922 35.4739C42.8488 35.7044 42.3861 35.6152 42.1547 35.2731C41.1134 33.7335 38.5456 31.9448 37.8402 31.9448C37.8402 31.9448 37.8402 31.9448 37.8365 31.9448C37.0452 31.9559 33.8617 33.5104 33.048 35.5594C32.9323 35.8532 32.6524 36.028 32.3538 36.028Z" fill="#603813"/>
<path d="M55.0988 33.727C54.6556 42.7388 55.5987 52.51 59.7949 60.6698C67.3785 75.3579 78.207 69.248 79.0263 55.094C79.231 52.3572 79.1589 49.576 78.9721 46.8309C78.4223 39.1836 77.2814 31.9757 72.6686 25.7652C70.3634 22.5745 66.5356 19.1506 62.3853 19.9826C56.8401 21.4762 55.5099 28.4402 55.1051 33.6447L55.0996 33.7234L55.0988 33.727Z" fill="#D9B373"/>
<path d="M58.7 58.17C58.4524 58.1319 58.2315 57.9701 58.1238 57.7262C54.4735 49.2124 53.9534 36.4358 55.3214 28.2169C55.9293 24.5666 57.9292 20.41 61.0235 19.3578C64.1795 18.2848 66.9631 19.0982 69.0687 21.7094C69.3276 22.0315 69.277 22.4961 68.9542 22.7537C68.6314 23.0112 68.1615 22.9593 67.9063 22.638C66.1832 20.5012 64.09 19.8861 61.5069 20.7632C59.1209 21.5762 57.3284 25.2488 56.7964 28.459C55.4629 36.4647 55.9603 48.8864 59.4987 57.1402C59.6616 57.5177 59.4833 57.9548 59.1048 58.1166C58.9708 58.1714 58.8337 58.1875 58.7008 58.1664L58.7 58.17Z" fill="#603813"/>
<path d="M60.5815 21.8494C62.5454 24.9055 62.6485 27.2598 62.6485 27.2598Z" fill="#603813"/>
<path d="M62.5355 27.9962C62.1878 27.9441 61.9182 27.6538 61.9007 27.2925C61.901 27.2735 61.7678 25.0763 59.9522 22.2538C59.7288 21.9089 59.832 21.448 60.1741 21.2251C60.5198 21.0029 60.9823 21.1065 61.2065 21.4477C63.2563 24.6365 63.3838 27.1254 63.3882 27.2291C63.4064 27.6401 63.0875 27.9859 62.6752 28.0035C62.6254 28.0042 62.5764 28.0012 62.5318 27.9954L62.5355 27.9962Z" fill="#603813"/>
<path d="M65.2408 20.9409C66.3898 22.4289 66.7945 26.5183 66.7945 26.5183Z" fill="#603813"/>
<path d="M66.685 27.2555C66.3564 27.2037 66.0894 26.9369 66.0534 26.5905C65.9467 25.5099 65.4866 22.4738 64.6509 21.3919C64.4001 21.0677 64.4596 20.5974 64.7881 20.3487C65.113 20.0992 65.5813 20.1584 65.835 20.487C67.0796 22.0984 67.4963 26.0077 67.5391 26.4468C67.5808 26.8553 67.2806 27.2204 66.868 27.257C66.8057 27.2625 66.7413 27.2601 66.6822 27.2511L66.685 27.2555Z" fill="#603813"/>
<path d="M59.6215 88.719C59.4872 90.7085 59.6215 91.3779 57.9047 93.6575C56.1879 95.9371 54.5681 97.8337 50.2798 99.165C45.7004 100.586 27.7894 99.9236 20.9296 99.165C17.3803 98.7708 14.1445 97.882 11.2109 96.3759C6.47101 92.6497 2.93286 86.8076 6.66882 81.2257C7.04204 80.8538 8.16917 80.032 8.54239 79.6601C10.1622 78.7118 10.3898 78.1875 12.353 77.7598C12.353 77.3879 13.0136 77.5069 13.0136 77.5069C13.0136 77.5069 36.0115 76.6777 41.8189 77.7152C56.5798 80.3555 56.4492 81.3707 58.9833 85.4948C59.4125 86.1977 59.6738 87.9009 59.6178 88.7227L59.6215 88.719Z" fill="#D9B373"/>
<path d="M57.1433 88.0197C55.2287 86.9599 51.4629 86.7554 51.4629 86.7554L57.1433 88.0197Z" fill="#603813"/>
<path d="M57.1433 88.7635C57.091 88.7635 57.0351 88.7561 56.9791 88.745L51.2986 87.4806C50.918 87.395 50.6679 87.0343 50.7239 86.6513C50.7761 86.2683 51.1158 85.9856 51.5039 86.0117C51.6644 86.0191 55.4638 86.2422 57.5053 87.369C57.83 87.5475 57.9719 87.938 57.8412 88.2838C57.7293 88.5776 57.4493 88.7635 57.1433 88.7635Z" fill="#603813"/>
<path d="M56.5798 91.6938H51.4629C51.4629 91.6938 54.3031 91.9765 56.5798 91.6938Z" fill="#603813"/>
<path d="M54.2322 92.5641C52.7206 92.5641 51.4666 92.4414 51.3882 92.434C50.9926 92.3931 50.6978 92.0509 50.7164 91.6568C50.7351 91.2626 51.0635 90.9502 51.4629 90.9502H56.5797C56.9753 90.9502 57.3001 91.2551 57.3262 91.6493C57.3523 92.0435 57.0649 92.3856 56.673 92.434C55.8743 92.5344 55.0197 92.5679 54.2322 92.5679V92.5641Z" fill="#603813"/>
<path d="M58.6661 86.2347C58.4086 86.2347 58.1585 86.1008 58.0204 85.8665C56.8336 83.8398 55.5833 82.5717 51.6943 80.8536C46.6409 78.6224 34.1753 76.6068 15.6635 78.2542C15.2529 78.2914 14.8909 77.9902 14.8536 77.5811C14.8163 77.1721 15.1186 76.8114 15.5291 76.7742C34.3246 75.1007 47.0813 77.1907 52.2989 79.4926C56.0983 81.1697 57.8002 82.5345 59.3118 85.1153C59.5208 85.4686 59.3976 85.926 59.0431 86.1343C58.9236 86.2049 58.7967 86.2347 58.6661 86.2347Z" fill="#603813"/>
</g>
<defs>
<filter id="filter0_d_306_1974" x="0" y="0" width="91" height="108" filterUnits="userSpaceOnUse" color-interpolation-filters="sRGB">
<feFlood flood-opacity="0" result="BackgroundImageFix"/>
<feColorMatrix in="SourceAlpha" type="matrix" values="0 0 0 0 0 0 0 0 0 0 0 0 0 0 0 0 0 0 127 0" result="hardAlpha"/>
<feMorphology radius="4" operator="dilate" in="SourceAlpha" result="effect1_dropShadow_306_1974"/>
<feOffset dx="4" dy="4"/>
<feComposite in2="hardAlpha" operator="out"/>
<feColorMatrix type="matrix" values="0 0 0 0 0.865234 0 0 0 0 0.839319 0 0 0 0 0.803346 0 0 0 1 0"/>
<feBlend mode="normal" in2="BackgroundImageFix" result="effect1_dropShadow_306_1974"/>
<feBlend mode="normal" in="SourceGraphic" in2="effect1_dropShadow_306_1974" result="shape"/>
</filter>
</defs>
</svg>
