<svg width="192" height="192" viewBox="0 0 192 192" fill="none" xmlns="http://www.w3.org/2000/svg">
<rect width="192" height="192" fill="#FFF6DE"/>
<path fill-rule="evenodd" clip-rule="evenodd" d="M157.711 74.1054L159.051 78.87C152.814 76.233 146.022 75.0753 139.645 75.0753C127.604 75.0753 117.287 78.4053 109.804 84.6953C104.366 89.2668 100.689 95.2246 98.9093 102.235H92.5531C86.7249 82.4166 68.0315 75.0753 51.9735 75.0753C44.9727 75.0753 38.5545 76.2011 32.9373 78.38L34.0344 73.9753C34.4508 72.2853 33.8378 70.5353 32.4036 69.3353C32.3458 69.2853 26.7246 64.3753 28.6099 59.2053C31.2354 52.0153 35.8156 51.1754 43.0792 50.3854C48.8969 49.7554 56.1257 51.8453 59.5262 55.1453C64.7425 60.1953 63.956 63.6654 63.7478 64.2954C62.7994 65.7854 62.9151 67.4153 63.8635 68.9153C64.835 70.4453 66.7781 71.2353 68.7907 71.3153C69.4268 71.3353 73.2552 71.3853 85.2377 69.8953C90.5118 69.2453 100.817 69.2753 106.034 69.9753C118.456 71.6353 122.481 71.4153 123.637 71.2453C125.499 70.9653 127.2 70.1153 128.009 68.6353C128.796 67.1853 128.842 65.6854 127.963 64.2954C127.766 63.6654 126.968 60.1953 132.185 55.1453C135.597 51.8453 142.814 49.7554 148.632 50.3854C155.895 51.1653 160.475 52.0153 163.101 59.2053C164.986 64.3653 159.342 69.3053 159.307 69.3353C157.838 70.5653 157.225 72.3853 157.711 74.1054ZM94.1432 118.235C93.285 128.597 89.4515 136.768 82.7278 142.555C75.6725 148.625 65.9801 151.705 53.9282 151.705V151.715C26.0307 151.715 10.0231 137.445 10 112.575C10 102.813 12.9861 94.4195 18.7007 88.022L22.1213 74.2853C19.172 70.9253 14.6843 64.1353 17.5758 56.2053C22.5724 42.5353 34.5087 41.2453 41.645 40.4753C51.2911 39.4353 62.198 42.7254 68.1545 48.4954C73.0007 53.1954 74.8282 57.5053 75.3371 60.9253C77.4074 60.7253 80.1139 60.4353 83.5953 60.0053C89.9682 59.2153 101.511 59.2553 107.815 60.0953C111.481 60.5853 114.28 60.8954 116.362 61.0754C116.825 57.6354 118.641 53.2654 123.568 48.4954C129.524 42.7254 140.42 39.4353 150.077 40.4753C157.214 41.2453 169.15 42.5353 174.147 56.2053C177.027 64.0853 172.62 70.8354 169.659 74.2154L173.615 88.2753C173.752 88.766 173.801 89.2577 173.77 89.7376C178.445 95.5404 181.56 103.28 182 113.325V113.625C182 126.195 178.091 135.935 170.399 142.555C163.344 148.625 153.651 151.705 141.6 151.705V151.715C115.892 151.715 100.281 139.598 97.9704 118.235H94.1432ZM35.0291 96.1653C40.0372 91.9553 47 91.0753 51.9735 91.0753C60.4862 91.0753 74.886 94.0353 75.8228 113.785C75.7997 121.865 73.7294 127.735 69.6697 131.225C66.2114 134.205 60.9141 135.715 53.9282 135.715C36.3592 135.715 28.5174 128.575 28.5058 112.565C28.4942 105.325 30.6918 99.8053 35.0291 96.1653ZM59.9426 114.825H59.8616C55.9291 114.795 53.8588 113.215 52.8178 111.895C51.2217 109.885 50.9326 107.035 52.0545 104.465C52.9682 102.375 55.212 100.705 58.0804 99.9853C60.7291 99.3253 63.4124 99.6453 65.263 100.855C68.5131 102.975 69.4846 105.985 68.1661 109.805C67.9001 110.585 65.2283 114.825 59.9541 114.825H59.9426ZM147.776 114.825H147.695C143.762 114.795 141.692 113.215 140.651 111.895C139.055 109.885 138.766 107.035 139.888 104.465C140.801 102.375 143.045 100.705 145.914 99.9853C148.562 99.3253 151.246 99.6453 153.096 100.855C156.346 102.975 157.318 105.985 155.999 109.805C155.722 110.585 153.062 114.825 147.787 114.825H147.776ZM122.689 96.1653C127.697 91.9553 134.66 91.0753 139.633 91.0753C148.146 91.0753 162.546 94.0353 163.483 113.785C163.459 121.865 161.389 127.735 157.329 131.225C153.871 134.205 148.574 135.715 141.588 135.715C124.019 135.715 116.166 128.575 116.166 112.565C116.154 105.325 118.352 99.8053 122.689 96.1653Z" fill="#88C54B"/>
</svg>
