<svg width="24" height="24" viewBox="0 0 24 24" fill="none" xmlns="http://www.w3.org/2000/svg">
<path d="M13.5 21.75H10.5C10.3011 21.75 10.1103 21.829 9.96969 21.9697C9.82904 22.1103 9.75002 22.3011 9.75002 22.5C9.75002 22.6989 9.82904 22.8897 9.96969 23.0304C10.1103 23.171 10.3011 23.25 10.5 23.25H13.5C13.6989 23.25 13.8897 23.171 14.0304 23.0304C14.171 22.8897 14.25 22.6989 14.25 22.5C14.25 22.3011 14.171 22.1103 14.0304 21.9697C13.8897 21.829 13.6989 21.75 13.5 21.75ZM14.25 19.5H9.75002C9.55111 19.5 9.36034 19.579 9.21969 19.7197C9.07904 19.8603 9.00002 20.0511 9.00002 20.25C9.00002 20.4489 9.07904 20.6397 9.21969 20.7804C9.36034 20.921 9.55111 21 9.75002 21H14.25C14.4489 21 14.6397 20.921 14.7804 20.7804C14.921 20.6397 15 20.4489 15 20.25C15 20.0511 14.921 19.8603 14.7804 19.7197C14.6397 19.579 14.4489 19.5 14.25 19.5ZM17.3166 2.93861C15.9071 1.52721 14.0189 0.750021 12 0.750021C11.0144 0.747672 10.0381 0.940062 9.12712 1.31614C8.21612 1.69222 7.38839 2.24457 6.69148 2.94148C5.99457 3.63839 5.44222 4.46612 5.06614 5.37712C4.69006 6.28812 4.49767 7.26445 4.50002 8.25002C4.50002 10.4353 5.33768 12.4796 6.7969 13.8581L7.00127 14.0499C7.84549 14.8392 9.00002 15.9206 9.00002 16.875V18C9.00002 18.1989 9.07904 18.3897 9.21969 18.5304C9.36034 18.671 9.55111 18.75 9.75002 18.75H10.875C10.9745 18.75 11.0699 18.7105 11.1402 18.6402C11.2105 18.5699 11.25 18.4745 11.25 18.375V12.8822C11.25 12.8064 11.2271 12.7323 11.1841 12.6698C11.1412 12.6073 11.0803 12.5593 11.0096 12.5321C10.5765 12.3554 10.165 12.1297 9.7833 11.8594C9.69752 11.8046 9.62378 11.7329 9.56658 11.6488C9.50938 11.5646 9.46992 11.4696 9.4506 11.3697C9.43127 11.2697 9.43249 11.1669 9.45418 11.0675C9.47587 10.968 9.51757 10.874 9.57675 10.7912C9.63593 10.7084 9.71135 10.6385 9.79841 10.5858C9.88547 10.533 9.98235 10.4986 10.0832 10.4845C10.184 10.4704 10.2866 10.477 10.3848 10.5038C10.4829 10.5307 10.5746 10.5772 10.6542 10.6406C11.0011 10.8863 11.6691 11.25 12 11.25C12.331 11.25 12.9989 10.8853 13.3467 10.6406C13.5087 10.5388 13.7034 10.5027 13.8911 10.5398C14.0788 10.5768 14.2452 10.6841 14.3563 10.8398C14.4675 10.9955 14.5149 11.1878 14.489 11.3773C14.463 11.5669 14.3656 11.7393 14.2167 11.8594C13.8349 12.1292 13.4235 12.3544 12.9905 12.5306C12.9197 12.5579 12.8588 12.6059 12.8159 12.6684C12.773 12.7309 12.75 12.805 12.75 12.8808V18.375C12.75 18.4745 12.7895 18.5699 12.8599 18.6402C12.9302 18.7105 13.0256 18.75 13.125 18.75H14.25C14.4489 18.75 14.6397 18.671 14.7804 18.5304C14.921 18.3897 15 18.1989 15 18V16.875C15 15.9431 16.1419 14.8627 16.9758 14.0733L17.206 13.8549C18.7069 12.4219 19.5 10.4817 19.5 8.25002C19.505 7.26435 19.3146 6.28747 18.9398 5.37582C18.5651 4.46417 18.0133 3.63581 17.3166 2.93861Z" fill="#EEA643"/>
</svg>
