<svg width="25" height="24" viewBox="0 0 25 24" fill="none" xmlns="http://www.w3.org/2000/svg">
<path d="M14.0909 12L18.5441 7.54687C18.7554 7.3359 18.8743 7.04962 18.8745 6.75099C18.8748 6.45237 18.7564 6.16587 18.5455 5.95453C18.3345 5.74319 18.0482 5.62431 17.7496 5.62404C17.451 5.62378 17.1645 5.74215 16.9531 5.95312L12.5 10.4062L8.04687 5.95312C7.83553 5.74178 7.54888 5.62305 7.25 5.62305C6.95111 5.62305 6.66447 5.74178 6.45312 5.95312C6.24178 6.16447 6.12305 6.45111 6.12305 6.75C6.12305 7.04888 6.24178 7.33553 6.45312 7.54687L10.9062 12L6.45312 16.4531C6.24178 16.6645 6.12305 16.9511 6.12305 17.25C6.12305 17.5489 6.24178 17.8355 6.45312 18.0469C6.66447 18.2582 6.95111 18.3769 7.25 18.3769C7.54888 18.3769 7.83553 18.2582 8.04687 18.0469L12.5 13.5937L16.9531 18.0469C17.1645 18.2582 17.4511 18.3769 17.75 18.3769C18.0489 18.3769 18.3355 18.2582 18.5469 18.0469C18.7582 17.8355 18.8769 17.5489 18.8769 17.25C18.8769 16.9511 18.7582 16.6645 18.5469 16.4531L14.0909 12Z" fill="#603813"/>
</svg>
