<svg width="25" height="24" viewBox="0 0 25 24" fill="none" xmlns="http://www.w3.org/2000/svg">
<path d="M12.5 14.25C13.7426 14.25 14.75 13.2426 14.75 12C14.75 10.7574 13.7426 9.75 12.5 9.75C11.2574 9.75 10.25 10.7574 10.25 12C10.25 13.2426 11.2574 14.25 12.5 14.25Z" fill="#EEA643"/>
<path d="M22.5496 14.0625L22.5275 14.0447L21.0481 12.8845C20.9545 12.8104 20.8797 12.7151 20.83 12.6065C20.7803 12.4979 20.7571 12.379 20.7622 12.2597V11.7178C20.7575 11.5992 20.781 11.4812 20.8308 11.3735C20.8806 11.2658 20.9553 11.1714 21.0486 11.0981L22.5275 9.9375L22.5496 9.91969C22.7776 9.72969 22.9307 9.46475 22.9814 9.17225C23.032 8.87976 22.977 8.57877 22.8261 8.32312L20.8241 4.85906C20.8218 4.85579 20.8197 4.85235 20.818 4.84875C20.6663 4.59664 20.4311 4.40562 20.1532 4.30886C19.8754 4.2121 19.5724 4.21571 19.2969 4.31906L19.2805 4.32516L17.5414 5.025C17.4317 5.06938 17.3129 5.08704 17.195 5.07653C17.0771 5.06602 16.9633 5.02763 16.8631 4.96453C16.7094 4.86766 16.5531 4.77609 16.3944 4.68984C16.2915 4.63403 16.2031 4.55481 16.1364 4.45856C16.0697 4.36232 16.0266 4.25176 16.0105 4.13578L15.7485 2.28L15.7428 2.24625C15.6858 1.95881 15.5315 1.69977 15.306 1.51265C15.0805 1.32554 14.7974 1.22176 14.5044 1.21875H10.4956C10.1985 1.2197 9.9112 1.32549 9.68439 1.51749C9.45758 1.70948 9.30581 1.97536 9.2558 2.26828L9.25159 2.29453L8.99049 4.15406C8.97448 4.2697 8.93168 4.38001 8.86552 4.4762C8.79936 4.57239 8.71166 4.6518 8.6094 4.70813C8.45019 4.79388 8.29385 4.88486 8.14065 4.98094C8.04065 5.04365 7.92719 5.08174 7.80961 5.09209C7.69202 5.10244 7.57366 5.08475 7.46424 5.04047L5.72377 4.33734L5.70737 4.33078C5.43149 4.22731 5.12807 4.22384 4.84989 4.32096C4.57172 4.41808 4.3364 4.60965 4.18487 4.86234L4.17877 4.87266L2.17393 8.33906C2.02282 8.59497 1.96767 8.89629 2.01833 9.18913C2.069 9.48197 2.22218 9.74724 2.45049 9.9375L2.47252 9.95531L3.9519 11.1155C4.04558 11.1896 4.12035 11.2849 4.17006 11.3935C4.21976 11.5021 4.24299 11.621 4.23784 11.7403V12.2822C4.24253 12.4008 4.21902 12.5188 4.16923 12.6265C4.11944 12.7342 4.04479 12.8286 3.95143 12.9019L2.47252 14.0625L2.45049 14.0803C2.22241 14.2703 2.06935 14.5353 2.01868 14.8277C1.96802 15.1202 2.02304 15.4212 2.17393 15.6769L4.17596 19.1409C4.17826 19.1442 4.1803 19.1477 4.18205 19.1512C4.33375 19.4034 4.56896 19.5944 4.84682 19.6911C5.12469 19.7879 5.42767 19.7843 5.70315 19.6809L5.71955 19.6748L7.45721 18.975C7.56697 18.9306 7.68571 18.913 7.80364 18.9235C7.92157 18.934 8.03531 18.9724 8.13549 19.0355C8.28924 19.1327 8.44549 19.2242 8.60424 19.3102C8.70717 19.366 8.79554 19.4452 8.86222 19.5414C8.92891 19.6377 8.97204 19.7482 8.98815 19.8642L9.24877 21.72L9.2544 21.7537C9.31154 22.0417 9.4662 22.3011 9.69231 22.4882C9.91841 22.6754 10.2021 22.7789 10.4956 22.7812H14.5044C14.8016 22.7803 15.0888 22.6745 15.3157 22.4825C15.5425 22.2905 15.6942 22.0246 15.7442 21.7317L15.7485 21.7055L16.0096 19.8459C16.0258 19.7301 16.069 19.6196 16.1355 19.5234C16.2021 19.4272 16.2903 19.3479 16.393 19.2919C16.5533 19.2056 16.7099 19.1142 16.8617 19.0191C16.9617 18.9564 17.0752 18.9183 17.1928 18.9079C17.3104 18.8976 17.4287 18.9153 17.5381 18.9595L19.2786 19.6603L19.295 19.6669C19.5709 19.7705 19.8744 19.7741 20.1526 19.677C20.4308 19.5798 20.6661 19.3881 20.8175 19.1353C20.8194 19.1318 20.8214 19.1283 20.8236 19.125L22.8256 15.6614C22.977 15.4055 23.0324 15.1041 22.9818 14.8112C22.9312 14.5182 22.778 14.2528 22.5496 14.0625ZM16.2458 12.1763C16.2117 12.9021 15.9674 13.6025 15.5426 14.1921C15.1178 14.7817 14.5308 15.2352 13.8531 15.4974C13.1754 15.7597 12.436 15.8193 11.725 15.6692C11.014 15.519 10.362 15.1655 9.84813 14.6516C9.33431 14.1377 8.98087 13.4856 8.83079 12.7746C8.68071 12.0635 8.74045 11.3242 9.00276 10.6465C9.26506 9.96881 9.71863 9.38192 10.3083 8.95721C10.898 8.5325 11.5983 8.28827 12.3242 8.25422C12.8454 8.23127 13.3656 8.31702 13.8518 8.50601C14.338 8.695 14.7796 8.98309 15.1484 9.35197C15.5172 9.72085 15.8053 10.1624 15.9942 10.6487C16.1831 11.1349 16.2688 11.6551 16.2458 12.1763Z" fill="#EEA643"/>
</svg>
