<svg width="40" height="20" viewBox="0 0 40 20" fill="none" xmlns="http://www.w3.org/2000/svg">
<path d="M9.65154 18.4859C14.5697 18.4859 18.5566 14.5133 18.5566 9.61294C18.5566 4.71255 14.5697 0.73999 9.65154 0.73999C4.7334 0.73999 0.74646 4.71255 0.74646 9.61294C0.74646 14.5133 4.7334 18.4859 9.65154 18.4859Z" fill="#FFF6DE"/>
<path d="M9.65152 19.2334C4.32938 19.2334 0 14.9196 0 9.6167C0 4.31376 4.32938 0 9.65152 0C14.9737 0 19.303 4.31376 19.303 9.6167C19.303 14.9196 14.9737 19.2334 9.65152 19.2334ZM9.65152 1.48378C5.15046 1.48378 1.49289 5.13188 1.49289 9.61298C1.49289 14.0941 5.1542 17.7422 9.65152 17.7422C14.1488 17.7422 17.8101 14.0941 17.8101 9.61298C17.8101 5.13188 14.1488 1.48378 9.65152 1.48378Z" fill="#603813"/>
<path d="M29.7719 18.4859C34.69 18.4859 38.677 14.5133 38.677 9.61294C38.677 4.71255 34.69 0.73999 29.7719 0.73999C24.8538 0.73999 20.8668 4.71255 20.8668 9.61294C20.8668 14.5133 24.8538 18.4859 29.7719 18.4859Z" fill="#FFF6DE"/>
<path d="M29.7719 19.2334C24.4497 19.2334 20.1204 14.9196 20.1204 9.6167C20.1204 4.31376 24.4497 0 29.7719 0C35.094 0 39.4234 4.31376 39.4234 9.6167C39.4234 14.9196 35.094 19.2334 29.7719 19.2334ZM29.7719 1.48378C25.2708 1.48378 21.6132 5.13188 21.6132 9.61298C21.6132 14.0941 25.2746 17.7422 29.7719 17.7422C34.2692 17.7422 37.9305 14.0941 37.9305 9.61298C37.9305 5.13188 34.2692 1.48378 29.7719 1.48378Z" fill="#603813"/>
<path d="M18.5343 10.9963C18.3962 10.9963 18.2543 10.9592 18.1274 10.8773C17.7803 10.6542 17.6833 10.1931 17.9072 9.84725C18.3327 9.19647 19.0642 8.91756 19.6091 8.87665C20.2735 8.82459 20.8744 9.09606 21.3969 9.67247C21.673 9.97741 21.6507 10.446 21.3446 10.7212C21.0386 10.9963 20.5683 10.974 20.2884 10.6691C19.9898 10.3381 19.8144 10.353 19.7211 10.3604C19.5718 10.3716 19.2882 10.4608 19.1575 10.6579C19.0157 10.8773 18.7768 10.9963 18.5305 10.9963H18.5343Z" fill="#603813"/>
<path d="M13.9882 3.36029C12.8196 2.61478 10.8973 3.10879 9.99892 4.08783C9.15386 5.004 8.47629 6.59383 9.56116 7.53694C10.7146 8.32736 13.0899 8.04892 14.2356 7.13275C15.3433 6.16269 15.2177 4.28544 14.0491 3.4052L13.9882 3.36927V3.36029Z" fill="#603813"/>
<path d="M30.0119 3.28823C31.1831 2.69182 33.1033 3.08703 33.9997 3.87027C34.8443 4.6032 35.0873 6.24551 33.9997 7C32.8484 7.63234 30.9082 7.03913 29.7649 6.3062C28.6574 5.53015 28.7809 4.02835 29.9521 3.32416L30.0119 3.29542V3.28823Z" fill="#603813"/>
</svg>
