<svg width="184" height="132" viewBox="0 0 184 132" fill="none" xmlns="http://www.w3.org/2000/svg">
<path d="M40.7102 51.0605C38.8346 51.0605 36.5445 50.3687 34.0832 48.1025C33.0716 47.1721 31.9047 45.9038 30.4112 44.1146C27.9419 41.1566 24.8952 37.1528 21.6732 32.9105C19.8172 30.4693 17.4754 27.388 15.1575 24.4379C15.1694 30.2507 15.3128 37.0177 15.5478 43.1445C15.7071 47.3192 12.4413 50.8339 8.25949 50.993C4.07369 51.152 0.556962 47.8918 0.397656 43.717C0.385708 43.3552 0.0591277 34.7474 0.00735263 25.8811C-0.0245088 20.5892 0.0471797 16.3072 0.222418 13.1503C0.481291 8.41102 0.811854 2.51077 6.27213 0.526794C12.8276 -1.85875 18.1644 4.37151 22.0635 8.91994C25.6479 13.1026 29.766 18.5217 33.7526 23.762C33.7686 23.7819 33.7845 23.8017 33.7965 23.8216C33.6889 18.7245 33.5137 13.1543 33.3066 7.98958C33.1393 3.81487 36.3932 0.292216 40.5788 0.125228C44.7606 -0.0377841 48.2892 3.20655 48.4565 7.38524C48.4565 7.47271 48.811 16.2833 48.9862 25.086C49.0898 30.3103 49.1137 34.5287 49.0539 37.6299C48.9464 43.0928 48.8628 47.4027 44.8721 49.8717C44.0716 50.3648 42.602 51.0645 40.7142 51.0645L40.7102 51.0605Z" fill="#FD6161"/>
<path d="M65.3995 50.826C60.8712 50.826 57.1513 49.4225 54.6383 46.7627C52.1332 44.1107 50.9463 40.3615 51.2092 35.9283C51.6075 29.2289 56.9004 22.0007 64.7662 22.0007C71.3456 22.0007 77.0767 26.9865 78.399 33.8529C78.5623 34.7037 78.3392 35.5824 77.7856 36.2504C77.232 36.9183 76.4116 37.304 75.5434 37.308C67.3908 37.3159 59.302 38.1548 57.1713 39.1766C57.4062 40.4569 57.9041 41.753 58.8719 42.7788C60.2738 44.2658 62.4682 45.0172 65.3955 45.0172C67.9922 45.0172 71.3775 43.2122 72.5365 39.8645C73.0622 38.3496 74.719 37.5425 76.2404 38.0674C77.7578 38.5922 78.5662 40.2462 78.0405 41.7649C75.9775 47.7129 70.119 50.826 65.3995 50.826ZM64.7662 27.8095C61.6757 27.8095 59.1268 30.1434 57.8643 32.9543C61.8191 32.0399 67.132 31.69 71.3018 31.5628C69.7964 29.2925 67.359 27.8095 64.7702 27.8095H64.7662Z" fill="#FD6161"/>
<path d="M95.2291 50.826C90.7008 50.826 86.9809 49.4225 84.4679 46.7627C81.9628 44.1107 80.7759 40.3615 81.0388 35.9283C81.437 29.2289 86.73 22.0007 94.5958 22.0007C101.171 22.0007 106.906 26.9865 108.229 33.8529C108.392 34.7037 108.169 35.5824 107.615 36.2504C107.062 36.9183 106.241 37.304 105.373 37.308C97.2204 37.3159 89.1316 38.1548 87.0009 39.1766C87.2358 40.4609 87.7337 41.753 88.7015 42.7788C90.1034 44.2658 92.2978 45.0172 95.2251 45.0172C97.8218 45.0172 101.207 43.2122 102.366 39.8645C102.892 38.3496 104.549 37.5425 106.07 38.0674C107.587 38.5922 108.396 40.2462 107.87 41.7649C105.807 47.7129 99.9486 50.826 95.2291 50.826ZM94.5958 27.8095C91.5053 27.8095 88.9564 30.1434 87.6938 32.9543C91.6486 32.0399 96.9615 31.69 101.131 31.5628C99.626 29.2925 97.1886 27.8095 94.5998 27.8095H94.5958Z" fill="#FD6161"/>
<path d="M155.878 39.0692C155.702 39.0692 155.527 39.0533 155.348 39.0135C153.998 38.7312 152.624 38.6159 151.29 38.5046C147.713 38.2064 142.814 37.8009 142.213 32.3897C142.018 30.6204 142.647 28.871 144.037 27.3204C146.494 24.581 151.122 22.7441 155.559 22.7441C160.701 22.7441 166.352 23.4876 168.355 32.3579C168.666 33.7375 167.802 35.1052 166.42 35.4153C165.038 35.7294 163.668 34.8627 163.357 33.4831C162.206 28.3939 160.095 27.8611 155.559 27.8611C152.229 27.8611 149.103 29.3441 147.856 30.7357C147.478 31.1572 147.275 31.5587 147.307 31.8291C147.406 32.7197 147.442 33.0537 151.716 33.4115C153.133 33.5308 154.739 33.662 156.399 34.0079C157.785 34.2981 158.673 35.6539 158.383 37.0375C158.132 38.2422 157.064 39.0732 155.878 39.0732V39.0692Z" fill="#FD6161"/>
<path d="M155.041 51.4264C148.49 51.4264 143.583 47.7447 142.245 41.8127C141.934 40.433 142.798 39.0653 144.18 38.7551C145.558 38.445 146.932 39.3078 147.243 40.6875C148.35 45.5818 152.604 46.3094 155.041 46.3094C158.371 46.3094 161.497 44.8264 162.744 43.4348C163.122 43.0134 163.325 42.6118 163.293 42.3414C163.106 40.6437 162.461 40.2978 157.992 39.5145C157.152 39.3674 156.28 39.2124 155.344 39.0176C153.958 38.7273 153.07 37.3715 153.361 35.9879C153.651 34.6043 155.013 33.7177 156.395 34.0079C157.252 34.1868 158.08 34.3339 158.885 34.4731C163.038 35.2047 167.75 36.0316 168.387 41.7769C168.582 43.5461 167.953 45.2995 166.563 46.8461C164.106 49.5855 159.478 51.4224 155.041 51.4224V51.4264Z" fill="#FD6161"/>
<path d="M124.884 51.2235C120.356 51.2235 116.636 49.82 114.123 47.1601C111.618 44.5082 110.432 40.7589 110.695 36.3258C111.093 29.6264 116.385 22.3982 124.251 22.3982C131.03 22.3982 137.418 28.5569 137.928 35.5743C138.035 37.0414 137.988 40.1069 137.625 41.8165C136.327 47.9275 130.094 51.2235 124.888 51.2275L124.884 51.2235ZM124.251 28.207C119.982 28.207 116.744 32.664 116.505 36.6677C116.39 38.6199 116.617 41.3314 118.357 43.1763C119.759 44.6633 121.954 45.4147 124.881 45.4147C127.406 45.4147 131.261 43.7448 131.926 40.6118C132.129 39.6576 132.205 37.2045 132.117 35.9958C131.806 31.6819 127.557 28.211 124.248 28.211L124.251 28.207Z" fill="#FD6161"/>
<path d="M135.025 51.1838C133.44 51.1838 132.157 49.9035 132.157 48.3211V5.3297C132.157 3.74728 133.44 2.46704 135.025 2.46704C136.61 2.46704 137.892 3.74728 137.892 5.3297V48.3171C137.892 49.8995 136.61 51.1798 135.025 51.1798V51.1838Z" fill="#FD6161"/>
<path d="M171.335 96.9584C171.159 96.9584 170.984 96.9425 170.805 96.9027C169.455 96.6204 168.081 96.5051 166.747 96.3938C163.17 96.0956 158.271 95.6901 157.67 90.2788C157.475 88.5096 158.104 86.7602 159.494 85.2096C161.951 82.4702 166.579 80.6333 171.016 80.6333C177.946 80.6333 182.49 83.8578 183.812 89.7143C184.123 91.0939 183.259 92.4616 181.877 92.7717C180.499 93.0819 179.125 92.2191 178.814 90.8395C178.32 88.6527 176.974 85.7463 171.016 85.7463C167.686 85.7463 164.56 87.2293 163.313 88.6209C162.935 89.0423 162.732 89.4439 162.764 89.7143C162.863 90.6049 162.899 90.9388 167.173 91.2967C168.591 91.416 170.196 91.5472 171.856 91.8931C173.242 92.1833 174.13 93.5391 173.84 94.9227C173.589 96.1274 172.521 96.9584 171.335 96.9584Z" fill="#88C54B"/>
<path d="M170.498 109.316C163.947 109.316 159.04 105.634 157.702 99.7018C157.391 98.3222 158.255 96.9545 159.637 96.6444C161.019 96.3303 162.39 97.197 162.7 98.5767C163.807 103.471 168.061 104.199 170.498 104.199C173.828 104.199 176.954 102.716 178.201 101.324C178.579 100.903 178.782 100.501 178.75 100.227C178.563 98.529 177.918 98.183 173.453 97.3998C172.613 97.2527 171.741 97.0976 170.805 96.9028C169.419 96.6126 168.531 95.2568 168.822 93.8732C169.112 92.4896 170.474 91.6029 171.856 91.8932C172.713 92.0721 173.541 92.2192 174.342 92.3583C178.499 93.0899 183.207 93.9169 183.844 99.6621C184.039 101.431 183.41 103.181 182.02 104.731C179.563 107.471 174.935 109.308 170.498 109.308V109.316Z" fill="#88C54B"/>
<path d="M140.341 109.113C135.813 109.113 132.093 107.709 129.58 105.049C127.075 102.397 125.888 98.6481 126.151 94.2149C126.549 87.5155 131.842 80.2874 139.708 80.2874C146.486 80.2874 152.874 86.446 153.384 93.4635C153.492 94.9306 153.444 97.996 153.082 99.7057C151.783 105.817 145.55 109.113 140.345 109.117L140.341 109.113ZM139.708 86.0961C135.438 86.0961 132.2 90.5531 131.961 94.5569C131.846 96.509 132.073 99.2206 133.813 101.065C135.215 102.552 137.41 103.304 140.337 103.304C142.862 103.304 146.717 101.634 147.382 98.501C147.585 97.5507 147.661 95.0936 147.573 93.8849C147.263 89.5711 143.013 86.1001 139.704 86.1001L139.708 86.0961Z" fill="#88C54B"/>
<path d="M150.481 109.069C148.896 109.069 147.613 107.789 147.613 106.206V63.2189C147.613 61.6364 148.896 60.3562 150.481 60.3562C152.066 60.3562 153.348 61.6364 153.348 63.2189V106.206C153.348 107.789 152.066 109.069 150.481 109.069Z" fill="#88C54B"/>
<path d="M25.1343 94.7239C21.6096 94.7239 18.4514 92.2509 17.7265 88.6686C16.8981 84.5814 19.5426 80.5936 23.6408 79.7666C32.5819 77.9576 47.8275 76.4467 56.2708 77.0829C60.4367 77.3969 63.5631 81.023 63.2484 85.1818C62.9338 89.3406 59.2976 92.4577 55.1357 92.1476C48.2536 91.6307 34.418 93.0024 26.6477 94.5729C26.1419 94.6762 25.6361 94.7239 25.1383 94.7239H25.1343Z" fill="#88C54B"/>
<path d="M23.9512 109.474C19.9247 109.474 16.5752 106.31 16.396 102.254C16.3204 100.553 15.6672 85.468 15.9261 79.9017C15.9579 79.2218 15.9579 78.1722 15.9579 77.0589C15.9579 73.1069 15.9579 68.1887 17.1209 64.3639C18.7139 59.1236 24.0707 58.4597 27.6152 58.0223C30.8333 57.6247 34.7562 57.3742 37.4764 57.2311C43.7051 56.9091 52.6901 56.7103 57.5131 57.2152C61.671 57.6486 64.6859 61.366 64.2518 65.5169C63.8177 69.6677 60.0939 72.6815 55.936 72.2441C50.9656 71.7233 37.9702 72.1725 31.1519 72.8246C31.0961 74.3195 31.0961 75.8781 31.0961 77.0629C31.0961 78.3551 31.0961 79.5757 31.0483 80.6054C30.8571 84.7444 31.3231 97.1571 31.5183 101.59C31.7015 105.757 28.4675 109.288 24.2937 109.47C24.1822 109.474 24.0667 109.478 23.9552 109.478L23.9512 109.474Z" fill="#88C54B"/>
<path d="M80.975 109.3C71.3687 109.3 65.8571 103.626 65.8491 93.738C65.8491 89.1419 67.2905 85.3091 70.0266 82.6532C72.6034 80.1523 76.1559 78.8284 80.3019 78.8284C86.7618 78.8284 94.4603 82.8122 94.8865 94.0362C94.8865 94.076 94.8865 94.1157 94.8865 94.1555C94.8865 99.1532 93.5403 103.026 90.8918 105.658C88.4624 108.071 85.1249 109.296 80.975 109.296V109.3ZM80.3019 85.1898C78.5893 85.1898 76.1922 85.5397 74.4676 87.2135C72.9741 88.6608 72.2174 90.8555 72.2214 93.734C72.2254 100.099 74.9253 102.938 80.975 102.938C83.3805 102.938 85.2046 102.338 86.3954 101.153C87.7933 99.7655 88.5062 97.4316 88.5142 94.2191C88.1916 86.3667 83.2331 85.1898 80.3019 85.1898Z" fill="#88C54B"/>
<path d="M85.6827 92.5809C85.6468 92.7041 84.8304 94.4495 83.0182 94.4336C80.5968 94.4098 79.8719 92.2747 80.5131 90.585C81.1066 89.0105 83.4484 88.2551 84.7547 89.2371C85.8738 90.08 86.0889 91.233 85.6827 92.5809Z" fill="#88C54B"/>
<path d="M83.046 94.6326C83.046 94.6326 83.0261 94.6326 83.0181 94.6326C81.664 94.6206 80.9511 93.9925 80.5927 93.4676C80.0431 92.6685 79.9435 91.5353 80.3298 90.5135C80.6445 89.6826 81.4171 89.0186 82.4048 88.7323C83.3169 88.4699 84.2408 88.5971 84.8781 89.0782C85.9972 89.9211 86.3317 91.1179 85.8777 92.6367C85.7861 92.9468 84.8661 94.6326 83.05 94.6326H83.046ZM83.3288 88.9947C83.062 88.9947 82.7872 89.0345 82.5084 89.114C81.6561 89.3605 80.9631 89.949 80.6962 90.6527C80.3537 91.5552 80.4414 92.5492 80.9153 93.241C81.3534 93.8811 82.0822 94.2231 83.0181 94.231C84.7466 94.231 85.4755 92.5572 85.4914 92.5174C85.8976 91.1537 85.6188 90.1319 84.6311 89.3923C84.2807 89.1299 83.8227 88.9908 83.3288 88.9908V88.9947Z" fill="#88C54B"/>
<path d="M115.927 92.5809C115.891 92.7041 115.075 94.4495 113.263 94.4336C110.841 94.4098 110.117 92.2747 110.758 90.585C111.351 89.0105 113.693 88.2551 114.999 89.2371C116.118 90.08 116.334 91.233 115.927 92.5809Z" fill="#88C54B"/>
<path d="M113.291 94.6326C113.291 94.6326 113.271 94.6326 113.263 94.6326C111.909 94.6206 111.196 93.9925 110.837 93.4676C110.288 92.6685 110.188 91.5353 110.574 90.5135C110.889 89.6826 111.662 89.0186 112.649 88.7323C113.561 88.4699 114.485 88.5971 115.123 89.0782C116.242 89.9211 116.576 91.1179 116.122 92.6367C116.027 92.9468 115.111 94.6326 113.295 94.6326H113.291ZM113.573 88.9947C113.307 88.9947 113.032 89.0345 112.753 89.114C111.901 89.3605 111.208 89.949 110.941 90.6527C110.598 91.5552 110.686 92.5492 111.16 93.241C111.598 93.8811 112.327 94.2231 113.263 94.231C113.271 94.231 113.279 94.231 113.287 94.231C114.995 94.231 115.72 92.5572 115.732 92.5174C116.138 91.1537 115.859 90.1319 114.872 89.3923C114.521 89.1299 114.063 88.9908 113.569 88.9908L113.573 88.9947Z" fill="#88C54B"/>
<path d="M111.164 109.3C101.558 109.3 96.0456 103.626 96.0376 93.738C96.0376 89.1419 97.4793 85.3091 100.215 82.6532C102.792 80.1523 106.345 78.8284 110.491 78.8284C116.951 78.8284 124.649 82.8122 125.075 94.0362C125.075 94.076 125.075 94.1157 125.075 94.1555C125.075 99.1532 123.729 103.026 121.081 105.658C118.651 108.071 115.314 109.296 111.164 109.296V109.3ZM110.487 85.1898C108.774 85.1898 106.377 85.5397 104.652 87.2135C103.159 88.6608 102.402 90.8555 102.406 93.734C102.406 100.099 105.11 102.938 111.16 102.938C113.565 102.938 115.389 102.338 116.58 101.153C117.978 99.7655 118.691 97.4316 118.699 94.2191C118.376 86.3667 113.418 85.1898 110.487 85.1898Z" fill="#88C54B"/>
<path d="M120.244 86.5336C119.348 86.5336 118.532 85.9253 118.313 85.0148L116.712 78.4426C116.544 77.7588 116.755 77.0352 117.261 76.5461C117.273 76.5342 119.217 74.5701 118.568 72.5185C117.663 69.6599 116.086 69.3219 113.585 69.0118C111.582 68.7613 109.097 69.5923 107.922 70.9043C106.126 72.9121 106.4 74.2918 106.468 74.5423C106.771 75.0949 106.755 75.6913 106.484 76.2678C106.205 76.8562 105.62 77.1942 104.979 77.3055C104.58 77.3731 103.194 77.4606 98.917 76.8006C97.1208 76.5223 93.5722 76.5103 91.7561 76.7688C87.63 77.3612 86.3118 77.3413 86.0927 77.3334C85.3997 77.3015 84.7306 76.9874 84.3961 76.3791C84.0695 75.7827 84.0297 75.1347 84.3563 74.5423C84.428 74.2918 84.6988 72.9121 82.9026 70.9043C81.7317 69.5923 79.2425 68.7613 77.2392 69.0118C74.7381 69.3259 73.1609 69.6599 72.2569 72.5185C71.6077 74.5741 73.5433 76.5262 73.5632 76.5461C74.0571 77.0232 74.2681 77.719 74.1248 78.3909L72.7069 84.9631C72.4759 86.0366 71.4165 86.7165 70.3412 86.4899C69.2659 86.2593 68.5809 85.2017 68.8119 84.1282L70.0226 78.5142C69.007 77.1783 67.4617 74.4787 68.4574 71.3258C70.1779 65.8907 74.2881 65.3778 76.7454 65.0717C80.0669 64.6582 83.8226 65.9662 85.8737 68.2603C87.5424 70.129 88.1717 71.8426 88.3469 73.2024C89.0598 73.1229 89.9918 73.0076 91.1906 72.8366C93.385 72.5225 97.3597 72.5384 99.5303 72.8724C100.793 73.0672 101.757 73.1905 102.474 73.262C102.633 71.8943 103.258 70.1568 104.955 68.2603C107.006 65.9662 110.757 64.6582 114.083 65.0717C116.54 65.3778 120.65 65.8907 122.371 71.3258C123.363 74.4588 121.845 77.1425 120.826 78.4864L122.188 84.0765C122.447 85.142 121.794 86.2195 120.722 86.4779C120.563 86.5177 120.408 86.5336 120.248 86.5336H120.244Z" fill="#88C54B"/>
<path d="M99.2196 95.9882H91.7003C89.94 95.9882 88.5142 94.5648 88.5142 92.8074C88.5142 91.0501 89.94 89.6267 91.7003 89.6267H99.2196C100.98 89.6267 102.406 91.0501 102.406 92.8074C102.406 94.5648 100.98 95.9882 99.2196 95.9882Z" fill="#88C54B"/>
<path d="M60.5103 125.904C60.1025 125.904 59.873 125.675 59.873 125.268V124.542C59.873 124.135 60.1025 123.906 60.5103 123.906H67.3159C67.7237 123.906 67.9531 124.135 67.9531 124.542V125.268C67.9531 125.675 67.7237 125.904 67.3159 125.904H60.5103ZM60.1279 117.952V117.227C60.1279 116.82 60.3573 116.591 60.7652 116.591H67.061C67.4688 116.591 67.6982 116.82 67.6982 117.227V117.952C67.6982 118.359 67.4688 118.588 67.061 118.588H60.7652C60.3573 118.588 60.1279 118.359 60.1279 117.952ZM70.4578 122.609C70.05 122.609 69.8206 122.38 69.8206 121.972V121.247C69.8206 120.84 70.05 120.611 70.4578 120.611H75.0714C75.4792 120.611 75.7086 120.84 75.7086 121.247V121.972C75.7086 122.38 75.4792 122.609 75.0714 122.609H70.4578ZM83.8982 116.12C83.5923 116.12 83.4139 115.891 83.4139 115.484V115.077C83.4139 114.669 83.5923 114.44 83.8982 114.44C84.2041 114.44 84.3825 114.669 84.3825 115.077V115.484C84.3825 115.891 84.2168 116.12 83.8982 116.12ZM77.5386 125.7V124.682C77.5386 124.339 77.6788 124.11 77.972 123.919C80.215 122.519 81.6679 120.827 82.6237 118.423H78.6474C78.2396 118.423 78.0102 118.194 78.0102 117.787V117.01C78.0102 116.603 78.2396 116.374 78.6474 116.374H84.6246C85.0707 116.374 85.3001 116.641 85.1854 117.074C84.7903 118.753 84.0766 120.191 83.2992 121.387C83.8982 122.265 84.7648 123.092 85.4913 123.715C85.7462 123.932 85.8481 124.161 85.8481 124.492V125.522C85.8481 126.056 85.4913 126.247 85.058 125.916C83.9492 125.039 83.0698 124.135 82.1649 122.927C81.2855 124.008 79.7435 125.331 78.2906 126.158C77.87 126.413 77.5386 126.196 77.5386 125.7ZM84.9305 115.484V115.077C84.9305 114.669 85.1089 114.44 85.4148 114.44C85.7207 114.44 85.8991 114.669 85.8991 115.077V115.484C85.8991 115.891 85.7334 116.12 85.4148 116.12C85.1089 116.12 84.9305 115.891 84.9305 115.484ZM91.2028 122.876C90.795 122.876 90.5656 122.647 90.5656 122.24V120.955C90.5656 120.547 90.795 120.318 91.2028 120.318H92.4773C92.8851 120.318 93.1145 120.547 93.1145 120.955V122.24C93.1145 122.647 92.8851 122.876 92.4773 122.876H91.2028ZM99.5633 126.056C99.13 126.145 98.8623 125.916 98.8623 125.484V124.733C98.8623 124.352 99.0535 124.123 99.4486 124.046C100.787 123.766 101.806 123.232 102.533 122.418C103.361 121.489 103.807 120.178 103.884 118.448H98.6712C98.2633 118.448 98.0339 118.219 98.0339 117.812V117.049C98.0339 116.641 98.2633 116.412 98.6712 116.412H105.209C105.617 116.412 105.846 116.641 105.846 117.049V118.283C105.846 120.217 105.311 122.176 103.947 123.677C102.953 124.771 101.526 125.624 99.5633 126.056ZM108.639 122.609C108.232 122.609 108.002 122.38 108.002 121.972V121.247C108.002 120.84 108.232 120.611 108.639 120.611H113.253C113.661 120.611 113.89 120.84 113.89 121.247V121.972C113.89 122.38 113.661 122.609 113.253 122.609H108.639ZM122.079 116.12C121.774 116.12 121.595 115.891 121.595 115.484V115.077C121.595 114.669 121.774 114.44 122.079 114.44C122.385 114.44 122.564 114.669 122.564 115.077V115.484C122.564 115.891 122.398 116.12 122.079 116.12ZM115.72 125.7V124.682C115.72 124.339 115.86 124.11 116.153 123.919C118.396 122.519 119.849 120.827 120.805 118.423H116.829C116.421 118.423 116.191 118.194 116.191 117.787V117.01C116.191 116.603 116.421 116.374 116.829 116.374H122.806C123.252 116.374 123.481 116.641 123.367 117.074C122.972 118.753 122.258 120.191 121.48 121.387C122.079 122.265 122.946 123.092 123.672 123.715C123.927 123.932 124.029 124.161 124.029 124.492V125.522C124.029 126.056 123.672 126.247 123.239 125.916C122.13 125.039 121.251 124.135 120.346 122.927C119.467 124.008 117.925 125.331 116.472 126.158C116.051 126.413 115.72 126.196 115.72 125.7ZM123.112 115.484V115.077C123.112 114.669 123.29 114.44 123.596 114.44C123.902 114.44 124.08 114.669 124.08 115.077V115.484C124.08 115.891 123.915 116.12 123.596 116.12C123.29 116.12 123.112 115.891 123.112 115.484Z" fill="#603813"/>
</svg>
